<svg id="Layer_1" data-name="Layer 1" xmlns="http://www.w3.org/2000/svg" viewBox="0 0 500 500"><defs><style>.cls-1{fill:#e8e8e8;}</style></defs><path class="cls-1" d="M351.44,106.52,267.93,235.39h69.48v16.46h-69.9c1.2,1.91,2.17,3.46,3.16,5,5.52,8.7,11.08,17.38,16.56,26.12a3.09,3.09,0,0,0,3,1.68c14.94-.06,29.88,0,44.82,0h2.38v16.26H298.66c19.85,31.25,39.47,62.12,59.24,93.22-.77,0-1.28.12-1.78.12-6.3,0-12.6,0-18.9,0a2.49,2.49,0,0,1-2.46-1.31q-29-45.21-57.93-90.39a3.12,3.12,0,0,0-3-1.65q-23.4.09-46.8,0a3,3,0,0,0-2.89,1.58q-29.31,45.09-58.65,90.14a3.12,3.12,0,0,1-3,1.64c-6.59-.07-13.19,0-20.24,0,20.08-31.15,40-62,60.07-93.18H163.55V284.62h2.26c14.82,0,29.64,0,44.46.05a4.08,4.08,0,0,0,4-2.16c6.08-9.63,12.31-19.16,18.48-28.73.32-.49.59-1,1-1.78H163.58V235.54h69.7L150.87,106.61c.76,0,1.26-.08,1.77-.08,6.42,0,12.84,0,19.25,0a2.75,2.75,0,0,1,2.69,1.52q30.51,47.85,61.06,95.64,7.13,11.15,14.23,22.29c.31.49.67,1,1.17,1.67,1.62-2.46,3.16-4.78,4.68-7.1Q292.41,164.25,329.08,108a2.81,2.81,0,0,1,2.72-1.49C338.22,106.56,344.63,106.52,351.44,106.52Zm-86.24,178-14.56-22.67-14.76,22.67Z"/></svg>